<svg t="1714961552359" class="icon" viewBox="0 0 1024 1024" version="1.1" xmlns="http://www.w3.org/2000/svg" p-id="4260" width="200" height="200"><path d="M318.9248 515.5328a25.6 25.6 0 0 1-17.8176-44.032L420.864 355.9424a25.6 25.6 0 0 1 35.84 0.256l93.7472 92.7232 136.8064-133.7344a25.6 25.6 0 0 1 35.7888 36.608l-154.7776 151.3472a25.6512 25.6512 0 0 1-35.8912-0.1024L438.4768 410.1632 336.6912 508.3136a25.4464 25.4464 0 0 1-17.7664 7.2192z" p-id="4261" fill="#8a8a8a"></path><path d="M896 163.7888H128a25.6 25.6 0 0 0 0 51.2h45.6704v446.8224c0 29.5936 24.0128 53.6064 53.6064 53.6064h222.5152l-102.912 102.912a24.576 24.576 0 0 0 34.7136 34.7136L512 722.5344l130.4576 130.4576a24.576 24.576 0 0 0 34.7136-34.7136l-102.912-102.912h222.5152c29.5936 0 53.6064-24.0128 53.6064-53.6064V214.9888h45.6192a25.6 25.6 0 0 0 0-51.2z m-96.8192 500.4288H224.8192V214.9888h574.3104v449.2288z" p-id="4262" fill="#8a8a8a"></path></svg>